<svg width="572" height="228" viewBox="0 0 572 228" fill="none" xmlns="http://www.w3.org/2000/svg">
<g clip-path="url(#clip0_948_594)">
<path d="M1.26831 231.902C33.5467 204.464 81.7568 170.81 147.332 146.39C179.187 134.525 227.316 117.085 293.396 115.967C378.817 114.52 440.714 141.259 455.69 148.034C515.233 174.971 552.525 211.84 572 234.369" fill="#79A25F"/>
<path d="M1.26831 231.902C33.5467 204.464 81.7568 170.81 147.332 146.39C179.187 134.525 227.316 117.085 293.396 115.967C378.817 114.52 440.714 141.259 455.69 148.034C515.233 174.971 552.525 211.84 572 234.369" stroke="#648346" stroke-width="2" stroke-miterlimit="10"/>
<path d="M108.248 138.339C108.87 136.211 110.628 135.234 111.061 134.998C113.423 133.73 115.785 134.573 116.317 134.781C118.291 135.55 119.274 137.072 119.869 138.013C121.455 140.503 121.546 143.075 121.491 144.388C121.41 143.636 121.329 141.97 122.168 140.159C122.465 139.525 123.195 137.959 124.89 137.008C126.829 135.913 129.335 136.003 131.183 137.09C134.14 138.828 135.718 143.274 133.707 146.226C132.418 148.109 129.93 149.015 127.379 148.671C130.074 148.272 132.662 149.287 134.014 151.306C134.158 151.523 135.862 154.167 134.591 156.648C133.428 158.921 130.768 159.256 130.408 159.301C127.604 159.609 124.638 157.617 123.06 154.294C124.313 156.241 124.494 158.604 123.448 160.388C122.402 162.181 120.527 162.742 119.986 162.86C118.57 163.177 117.047 163.122 115.713 162.552C114.378 161.981 113.242 160.886 112.756 159.509C112.377 158.441 112.404 157.264 112.602 156.141C112.828 154.891 113.324 153.597 114.36 152.872C111.944 155.48 108.645 156.512 106.066 155.471C105.525 155.254 103.677 154.393 102.884 152.311C101.973 149.929 103.145 147.829 103.325 147.521C104.885 144.832 107.977 144.641 108.293 144.632C110.565 144.533 112.161 145.746 112.584 146.09C111.908 145.81 109.753 144.813 108.663 142.45C108.392 141.862 107.671 140.259 108.239 138.339H108.248Z" fill="#F1F2F2" stroke="#C2C4C6" stroke-linecap="round" stroke-linejoin="round"/>
<path d="M472.984 123.471C469.558 126.876 465.014 132.182 461.3 139.607C456.342 149.531 455.152 158.649 454.872 164.136" stroke="#496E44" stroke-width="3" stroke-linecap="round" stroke-linejoin="round"/>
<path d="M481.855 130.226C480.981 132.264 479.123 133.024 478.664 133.205C476.166 134.183 473.921 133.06 473.417 132.789C471.55 131.784 470.757 130.154 470.279 129.158C468.999 126.496 469.215 123.933 469.432 122.629C469.432 123.381 469.306 125.047 468.251 126.749C467.881 127.347 466.971 128.805 465.177 129.556C463.121 130.416 460.642 130.018 458.938 128.714C456.206 126.64 455.169 122.032 457.522 119.342C459.019 117.622 461.606 117.024 464.095 117.676C461.372 117.749 458.92 116.436 457.82 114.263C457.703 114.027 456.323 111.202 457.883 108.893C459.308 106.774 461.994 106.756 462.346 106.765C465.168 106.792 467.872 109.129 469.044 112.615C468.025 110.532 468.134 108.16 469.387 106.521C470.64 104.873 472.569 104.538 473.119 104.483C474.562 104.339 476.067 104.583 477.329 105.298C477.456 105.371 477.663 105.498 477.924 105.697C478.276 105.959 479.466 106.946 479.899 108.676C480.277 110.179 479.845 111.392 479.646 112.035C479.277 113.248 478.627 114.471 477.51 115.068C480.214 112.769 483.622 112.144 486.056 113.484C486.561 113.765 488.301 114.833 488.842 117.006C489.464 119.478 488.049 121.425 487.832 121.706C485.966 124.187 482.874 124.006 482.558 123.978C480.286 123.806 478.853 122.412 478.474 122.013C479.114 122.376 481.125 123.616 481.927 126.097C482.125 126.713 482.648 128.397 481.864 130.226H481.855Z" fill="#ECBDD2" stroke="#D69DB7" stroke-width="0.75" stroke-linecap="round" stroke-linejoin="round"/>
<path d="M476.897 119.336C477.438 117.51 475.912 115.442 473.488 114.717C471.064 113.992 468.66 114.885 468.118 116.711C467.577 118.537 469.103 120.605 471.528 121.33C473.952 122.055 476.356 121.162 476.897 119.336Z" fill="#FFD38C" stroke="#FEC671" stroke-width="0.75" stroke-miterlimit="10"/>
<path d="M77.1777 159.347C78.9988 162.082 81.2617 166.111 82.4878 171.01C84.1286 177.557 83.182 182.609 82.2985 185.525" stroke="#496E44" stroke-width="3" stroke-linecap="round" stroke-linejoin="round"/>
<path d="M78.3677 135.615C77.2048 133.731 75.2484 133.252 74.7706 133.143C72.1561 132.545 70.1006 133.994 69.6408 134.338C67.9459 135.606 67.396 137.335 67.0715 138.404C66.206 141.22 66.792 143.728 67.1977 144.987C67.0805 144.244 66.7198 142.614 65.4216 141.093C64.9709 140.559 63.853 139.246 61.9687 138.775C59.805 138.232 57.416 138.992 55.9284 140.532C53.5393 142.995 53.1877 147.703 55.9104 150.012C57.6504 151.488 60.2919 151.696 62.6629 150.682C59.9583 151.017 57.7315 152.683 56.9652 154.992C56.884 155.246 55.9464 158.243 57.8216 160.298C59.5436 162.182 62.2031 161.792 62.5547 161.738C65.3405 161.285 67.6755 158.578 68.3156 154.947C67.6214 157.156 68.0812 159.483 69.5597 160.923C71.0472 162.372 73.0036 162.408 73.5535 162.381C75.005 162.308 76.4565 161.847 77.5924 160.941C77.7096 160.851 77.8989 160.697 78.1243 160.461C78.4308 160.144 79.4586 158.994 79.6299 157.22C79.7832 155.68 79.1701 154.539 78.8816 153.933C78.3317 152.783 77.5113 151.669 76.3212 151.252C79.3414 153.118 82.7943 153.235 85.0031 151.551C85.4629 151.198 87.0225 149.876 87.2389 147.658C87.4823 145.122 85.7964 143.411 85.544 143.157C83.3352 140.984 80.306 141.627 79.9905 141.7C77.7727 142.207 76.5556 143.809 76.2401 144.253C76.8171 143.8 78.6292 142.27 79.0529 139.699C79.1611 139.056 79.4225 137.317 78.3768 135.624L78.3677 135.615Z" fill="#ECBDD2" stroke="#D69DB7" stroke-width="0.75" stroke-linecap="round" stroke-linejoin="round"/>
<path d="M475.499 145.52C473.949 147.059 471.893 149.459 470.216 152.818C467.971 157.309 467.439 161.429 467.313 163.91" stroke="#496E44" stroke-width="3" stroke-linecap="round" stroke-linejoin="round"/>
<path d="M477.546 134.663C478.339 134.056 479.241 134.174 479.466 134.21C480.665 134.391 481.296 135.333 481.431 135.55C481.936 136.365 481.891 137.18 481.855 137.687C481.765 139.018 481.107 139.978 480.737 140.44C480.908 140.141 481.323 139.516 482.117 139.091C482.396 138.937 483.081 138.566 483.947 138.674C484.947 138.801 485.831 139.507 486.21 140.404C486.823 141.834 486.209 143.872 484.677 144.406C483.703 144.741 482.558 144.406 481.72 143.582C482.802 144.162 483.478 145.23 483.424 146.335C483.424 146.452 483.325 147.874 482.207 148.435C481.179 148.952 480.115 148.354 479.98 148.272C478.88 147.63 478.33 146.099 478.655 144.469C478.591 145.52 478.024 146.425 477.158 146.787C476.302 147.159 475.463 146.851 475.238 146.751C474.634 146.489 474.102 146.054 473.768 145.484C473.732 145.429 473.678 145.33 473.624 145.194C473.543 145.013 473.299 144.361 473.516 143.582C473.705 142.912 474.138 142.523 474.363 142.314C474.778 141.916 475.31 141.581 475.878 141.599C474.3 141.889 472.822 141.373 472.163 140.304C472.028 140.078 471.587 139.272 471.857 138.294C472.164 137.189 473.155 136.737 473.299 136.673C474.58 136.121 475.761 136.881 475.878 136.963C476.734 137.542 476.987 138.412 477.05 138.656C476.879 138.376 476.365 137.434 476.599 136.275C476.662 135.985 476.824 135.206 477.546 134.663Z" fill="#ECBDD2" stroke="#D69DB7" stroke-width="0.75" stroke-linecap="round" stroke-linejoin="round"/>
<path d="M479.958 143.108C480.576 142.513 480.435 141.357 479.643 140.527C478.851 139.696 477.707 139.505 477.089 140.1C476.471 140.695 476.611 141.851 477.404 142.681C478.196 143.512 479.339 143.703 479.958 143.108Z" fill="#FFD38C" stroke="#FEC671" stroke-width="0.75" stroke-miterlimit="10"/>
<path d="M124.252 149.487C124.573 147.609 122.811 145.739 120.318 145.31C117.825 144.881 115.544 146.056 115.224 147.934C114.904 149.812 116.665 151.682 119.158 152.111C121.651 152.54 123.932 151.365 124.252 149.487Z" fill="#FFD38C" stroke="#FEC671" stroke-width="0.75" stroke-miterlimit="10"/>
<path d="M102.812 175.545C102.46 177.049 102.081 179.339 102.108 182.391C102.135 186.466 102.866 190.015 103.388 192.125" stroke="#496E44" stroke-width="3" stroke-linecap="round" stroke-linejoin="round"/>
<path d="M71.8862 152.439C74.371 151.964 76.0979 150.062 75.7434 148.19C75.3889 146.318 73.0872 145.186 70.6024 145.66C68.1176 146.135 66.3906 148.037 66.7451 149.909C67.0996 151.781 69.4013 152.913 71.8862 152.439Z" fill="#FFD38C" stroke="#FEC671" stroke-width="0.75" stroke-miterlimit="10"/>
<path d="M111.908 176.886C112.179 178.579 111.268 179.847 111.043 180.154C109.808 181.83 107.887 182.029 107.446 182.056C105.814 182.174 104.624 181.44 103.894 180.978C101.964 179.765 101.045 177.999 100.657 177.067C100.964 177.565 101.568 178.697 101.577 180.245C101.577 180.788 101.586 182.119 100.72 183.36C99.7284 184.772 97.9433 185.542 96.2935 185.397C93.652 185.171 91.0826 182.59 91.5154 179.856C91.7858 178.108 93.2373 176.65 95.1305 176.034C93.3816 177.212 91.2359 177.366 89.6221 176.406C89.4418 176.297 87.3863 175.02 87.4494 172.865C87.5125 170.891 89.2615 169.769 89.4959 169.624C91.3531 168.474 94.0848 168.872 96.2845 170.674C94.7609 169.732 93.8594 168.139 94.0036 166.545C94.1479 164.942 95.2658 163.928 95.5993 163.666C96.4829 162.968 97.5647 162.507 98.6826 162.452C99.8005 162.407 100.964 162.796 101.748 163.593C102.361 164.218 102.74 165.042 102.965 165.893C103.226 166.844 103.298 167.912 102.812 168.763C103.641 166.138 105.606 164.318 107.743 164.182C108.194 164.155 109.763 164.136 111.016 165.332C112.431 166.69 112.314 168.555 112.287 168.827C112.089 171.217 109.988 172.385 109.772 172.503C108.212 173.336 106.697 173.01 106.292 172.911C106.86 172.883 108.69 172.856 110.231 174.151C110.619 174.468 111.647 175.355 111.89 176.886H111.908Z" fill="#F1F2F2" stroke="#C2C4C6" stroke-linecap="round" stroke-linejoin="round"/>
<path d="M101.182 176.043C103.066 175.511 104.271 173.929 103.873 172.509C103.476 171.088 101.627 170.368 99.7429 170.9C97.8591 171.432 96.6542 173.014 97.0517 174.434C97.4492 175.855 99.2985 176.575 101.182 176.043Z" fill="#FFD38C" stroke="#FEC671" stroke-width="0.75" stroke-miterlimit="10"/>
<path d="M500.359 173.536C499.377 174.942 497.842 175.222 497.466 175.287C495.414 175.634 493.894 174.444 493.557 174.157C492.301 173.108 491.954 171.754 491.75 170.915C491.204 168.702 491.769 166.793 492.138 165.852C492.013 166.424 491.661 167.657 490.592 168.778C490.215 169.169 489.297 170.133 487.813 170.424C486.118 170.752 484.299 170.065 483.213 168.815C481.47 166.818 481.413 163.177 483.624 161.51C485.032 160.44 487.089 160.4 488.879 161.272C486.803 160.904 485.152 159.524 484.658 157.713C484.603 157.51 484.011 155.163 485.553 153.657C486.97 152.28 489.008 152.687 489.277 152.746C491.412 153.208 493.101 155.392 493.432 158.216C492.99 156.481 493.448 154.708 494.658 153.661C495.875 152.609 497.384 152.655 497.806 152.698C498.926 152.81 500.025 153.229 500.867 153.966C501.703 154.71 502.269 155.798 502.28 156.916C502.288 157.792 501.988 158.647 501.559 159.416C501.086 160.282 500.396 161.101 499.455 161.375C501.875 160.062 504.553 160.117 506.185 161.503C506.528 161.797 507.669 162.873 507.741 164.604C507.816 166.564 506.436 167.825 506.228 168.001C504.425 169.583 502.102 168.965 501.865 168.899C500.164 168.415 499.301 167.129 499.078 166.776C499.506 167.15 500.841 168.402 501.051 170.404C501.11 170.902 501.233 172.254 500.346 173.524L500.359 173.536Z" fill="#F1F2F2" stroke="#C2C4C6" stroke-linecap="round" stroke-linejoin="round"/>
<path d="M493.238 165.474C494.963 166.399 496.929 166.098 497.629 164.8C498.33 163.502 497.499 161.699 495.775 160.774C494.05 159.848 492.084 160.15 491.384 161.448C490.683 162.745 491.514 164.548 493.238 165.474Z" fill="#FFD38C" stroke="#FEC671" stroke-width="0.75" stroke-miterlimit="10"/>
<path d="M449.986 128.144C450.166 129.303 449.553 130.181 449.391 130.389C448.543 131.539 447.227 131.675 446.92 131.693C445.803 131.775 444.982 131.268 444.486 130.96C443.161 130.127 442.53 128.913 442.26 128.27C442.467 128.614 442.891 129.393 442.891 130.453C442.891 130.824 442.891 131.738 442.305 132.59C441.619 133.558 440.402 134.084 439.266 133.993C437.454 133.839 435.687 132.064 435.985 130.19C436.174 128.995 437.166 127.99 438.464 127.573C437.265 128.379 435.795 128.488 434.687 127.827C434.569 127.754 433.154 126.876 433.199 125.4C433.244 124.042 434.443 123.272 434.605 123.173C435.877 122.385 437.752 122.656 439.266 123.888C438.221 123.245 437.608 122.149 437.698 121.054C437.797 119.958 438.563 119.252 438.798 119.08C439.402 118.6 440.15 118.283 440.916 118.247C441.683 118.21 442.476 118.482 443.026 119.025C443.45 119.451 443.702 120.021 443.864 120.601C444.045 121.253 444.099 121.986 443.756 122.566C444.324 120.764 445.676 119.514 447.146 119.424C447.452 119.406 448.534 119.397 449.391 120.212C450.364 121.144 450.283 122.421 450.265 122.611C450.13 124.25 448.687 125.056 448.543 125.137C447.479 125.708 446.434 125.491 446.154 125.418C446.542 125.4 447.795 125.382 448.859 126.269C449.12 126.487 449.832 127.093 449.995 128.144H449.986Z" fill="#F1F2F2" stroke="#C2C4C6" stroke-linecap="round" stroke-linejoin="round"/>
<path d="M442.624 127.549C443.918 127.184 444.747 126.099 444.475 125.127C444.202 124.154 442.933 123.662 441.639 124.028C440.344 124.393 439.516 125.477 439.788 126.45C440.06 127.422 441.33 127.915 442.624 127.549Z" fill="#FFD38C" stroke="#FEC671" stroke-width="0.75" stroke-miterlimit="10"/>
<path d="M430.675 134.002C430.765 134.563 430.467 134.98 430.386 135.08C429.98 135.632 429.34 135.695 429.196 135.713C428.655 135.75 428.267 135.505 428.024 135.36C427.384 134.962 427.086 134.373 426.951 134.065C427.05 134.228 427.249 134.609 427.258 135.116C427.258 135.297 427.258 135.732 426.978 136.139C426.654 136.61 426.059 136.863 425.518 136.809C424.643 136.737 423.796 135.885 423.94 134.98C424.03 134.4 424.508 133.921 425.13 133.721C424.553 134.111 423.841 134.165 423.309 133.839C423.255 133.803 422.57 133.377 422.588 132.671C422.606 132.019 423.183 131.648 423.264 131.603C423.877 131.222 424.779 131.358 425.509 131.947C425.004 131.639 424.706 131.114 424.751 130.579C424.797 130.054 425.166 129.71 425.283 129.629C425.572 129.402 425.932 129.248 426.302 129.23C426.672 129.212 427.05 129.339 427.312 129.61C427.519 129.819 427.636 130.09 427.718 130.371C427.799 130.688 427.826 131.041 427.663 131.322C427.934 130.453 428.583 129.855 429.295 129.81C429.439 129.801 429.962 129.792 430.377 130.19C430.846 130.643 430.801 131.249 430.801 131.34C430.738 132.128 430.043 132.517 429.971 132.553C429.457 132.825 428.953 132.725 428.826 132.689C429.016 132.68 429.62 132.671 430.125 133.097C430.251 133.205 430.593 133.495 430.675 134.002Z" fill="#F1F2F2" stroke="#C2C4C6" stroke-linecap="round" stroke-linejoin="round"/>
<path d="M427.138 133.716C427.761 133.54 428.16 133.019 428.029 132.552C427.899 132.085 427.288 131.849 426.664 132.025C426.041 132.201 425.642 132.722 425.773 133.189C425.903 133.656 426.515 133.892 427.138 133.716Z" fill="#FFD38C" stroke="#FEC671" stroke-width="0.75" stroke-miterlimit="10"/>
<path d="M452.059 147.666C452.149 148.227 451.852 148.644 451.771 148.743C451.365 149.296 450.725 149.359 450.581 149.377C450.04 149.413 449.652 149.169 449.409 149.024C448.768 148.626 448.471 148.037 448.336 147.729C448.435 147.892 448.633 148.272 448.642 148.78C448.642 148.961 448.642 149.395 448.363 149.803C448.038 150.274 447.443 150.527 446.902 150.473C446.028 150.4 445.18 149.549 445.325 148.644C445.415 148.064 445.893 147.584 446.515 147.385C445.938 147.774 445.225 147.829 444.694 147.503C444.639 147.467 443.954 147.041 443.972 146.335C443.99 145.683 444.567 145.312 444.648 145.266C445.261 144.886 446.163 145.022 446.893 145.61C446.388 145.302 446.091 144.777 446.136 144.243C446.181 143.718 446.551 143.374 446.668 143.292C446.956 143.066 447.317 142.912 447.687 142.894C448.056 142.876 448.435 143.003 448.696 143.274C448.904 143.482 449.021 143.754 449.102 144.035C449.183 144.352 449.21 144.705 449.048 144.986C449.318 144.116 449.968 143.519 450.68 143.473C450.824 143.464 451.347 143.455 451.762 143.854C452.23 144.306 452.185 144.913 452.185 145.004C452.122 145.791 451.428 146.181 451.356 146.217C450.842 146.489 450.337 146.389 450.211 146.353C450.4 146.344 451.004 146.335 451.509 146.76C451.635 146.869 451.978 147.159 452.059 147.666Z" fill="#F1F2F2" stroke="#C2C4C6" stroke-linecap="round" stroke-linejoin="round"/>
<path d="M448.512 147.381C449.135 147.205 449.535 146.684 449.404 146.217C449.273 145.75 448.662 145.514 448.039 145.69C447.416 145.866 447.017 146.387 447.147 146.854C447.278 147.321 447.889 147.557 448.512 147.381Z" fill="#FFD38C" stroke="#FEC671" stroke-width="0.75" stroke-miterlimit="10"/>
<path d="M70.4193 187.127C70.5455 187.951 70.1127 188.566 70.0046 188.711C69.4095 189.526 68.4719 189.617 68.2556 189.635C67.4622 189.689 66.8852 189.336 66.5336 189.11C65.596 188.521 65.1543 187.67 64.9649 187.208C65.1092 187.453 65.4067 187.996 65.4157 188.747C65.4157 189.01 65.4157 189.653 65.001 190.26C64.5232 190.948 63.6577 191.319 62.8553 191.247C61.5752 191.138 60.331 189.888 60.5384 188.557C60.6736 187.715 61.3678 187 62.2874 186.71C61.4399 187.281 60.4032 187.353 59.6188 186.891C59.5377 186.837 58.537 186.221 58.564 185.18C58.5911 184.22 59.4385 183.677 59.5557 183.604C60.4572 183.043 61.7825 183.242 62.8463 184.111C62.1071 183.659 61.6743 182.88 61.7374 182.11C61.8096 181.332 62.3505 180.843 62.5128 180.716C62.9455 180.381 63.4684 180.154 64.0093 180.127C64.5502 180.1 65.1092 180.29 65.4969 180.68C65.7944 180.978 65.9747 181.386 66.0829 181.793C66.2091 182.255 66.2451 182.771 66.0107 183.188C66.4074 181.911 67.363 181.033 68.3998 180.969C68.6162 180.951 69.3825 180.951 69.9865 181.522C70.6717 182.183 70.6176 183.079 70.5996 183.215C70.5004 184.374 69.4817 184.944 69.3825 184.999C68.6252 185.397 67.895 185.243 67.6966 185.198C67.9671 185.18 68.8596 185.171 69.6079 185.796C69.7972 185.949 70.293 186.375 70.4102 187.118L70.4193 187.127Z" fill="#F1F2F2" stroke="#C2C4C6" stroke-linecap="round" stroke-linejoin="round"/>
<path d="M65.2258 186.712C66.1413 186.454 66.7273 185.686 66.5346 184.998C66.3419 184.309 65.4436 183.961 64.5281 184.219C63.6125 184.478 63.0266 185.245 63.2192 185.934C63.4119 186.622 64.3103 186.971 65.2258 186.712Z" fill="#FFD38C" stroke="#FEC671" stroke-width="0.75" stroke-miterlimit="10"/>
<path d="M364.651 110.57C374.704 117.315 384.758 124.049 394.82 130.794C393.849 131.326 392.867 131.849 391.895 132.381C393.731 132.894 395.498 133.634 397.167 134.57C394.487 136.168 391.61 137.41 388.626 138.268C385.248 136.937 380.35 134.511 375.608 130.054C373.409 127.984 369.295 124.039 366.615 117.482C365.505 114.761 364.946 112.335 364.651 110.58V110.57Z" fill="#FBFDF9" stroke="#3A4559" stroke-width="4" stroke-linecap="round" stroke-linejoin="round"/>
<path d="M330.546 134.255C325.5 132.825 320.159 133.259 314.916 133.427C270.482 134.817 226.235 115.964 182.439 123.615C180.888 123.882 179.298 124.217 178.031 125.144C174.791 127.54 175.4 132.963 178.237 135.833C181.075 138.702 185.267 139.648 189.243 140.329C200.14 142.183 211.195 142.932 222.229 143.681C229.416 144.174 236.602 144.658 243.808 144.539C251.329 144.411 258.819 143.622 266.339 143.464C274.046 143.307 281.743 143.829 289.44 144.303C307.799 145.446 326.275 146.383 344.565 144.303C346.126 144.125 349.278 143.405 348.374 141.088C347.775 139.54 345.792 139.954 344.438 139.678C339.548 138.662 335.337 135.606 330.556 134.255H330.546Z" fill="#FBFDF9"/>
<path d="M181.339 83.6513C178.326 80.5157 173.917 79.0761 169.598 78.7112C165.278 78.3464 160.939 78.9479 156.609 79.2831C154.292 79.4606 151.975 79.5691 149.658 79.6085C151.828 82.2117 152.859 85.5741 154.636 88.4632C158.219 94.2709 164.836 97.8601 171.61 98.4912C173.535 94.123 175.115 89.7253 178.247 86.1361C179.15 85.1008 180.093 84.233 181.339 83.6513Z" fill="#FBFDF9" stroke="#3A4559" stroke-width="4" stroke-linecap="round" stroke-linejoin="round"/>
<path d="M176.961 91.6185C173.112 88.7294 168.449 86.9546 163.668 86.5503" stroke="#3A4559" stroke-width="4" stroke-linecap="round" stroke-linejoin="round"/>
<path d="M159.466 123.389C163.423 119.247 165.327 115.362 166.338 112.542C167.958 108.016 167.281 106.212 169.284 100.71C171.041 95.888 173.309 92.4862 174.379 90.9973C175.91 88.8576 179.317 84.2035 185.482 80.5847C191.481 77.0645 196.841 76.2461 203.655 76.0588C211.283 75.8517 212.716 76.8476 217.399 76.0588C221.689 75.339 224.811 73.6726 229.416 71.3061C232.822 69.5608 231.86 69.7186 238.016 66.1984C245.889 61.6922 249.816 60.0751 252.811 59.0397C252.948 58.9904 254.755 58.2608 256.934 57.748C272.112 54.1786 290.039 53.9912 305.423 56.269C306.071 56.3676 306.718 56.4662 307.376 56.5845C322.603 59.1679 333.402 67.076 337.506 70.3693C348.256 78.9873 353.342 88.9562 360.97 103.885C366.163 114.041 366.026 115.106 369.177 120.874C372.987 127.836 380.713 136.513 398.041 143.109C397.668 143.602 397.167 144.174 396.509 144.727C395.38 145.683 394.241 146.196 393.436 146.482C394.85 147.616 396.254 148.75 397.668 149.884C393.554 150.386 387.742 150.929 380.742 150.988C372.191 151.067 365.182 151.126 356.807 149.036C351.673 147.754 343.848 145.111 335.209 139.175" fill="#FBFDF9"/>
<path d="M159.466 123.389C163.423 119.247 165.327 115.362 166.338 112.542C167.958 108.016 167.281 106.212 169.284 100.71C171.041 95.888 173.309 92.4862 174.379 90.9973C175.91 88.8576 179.317 84.2035 185.482 80.5847C191.481 77.0645 196.841 76.2461 203.655 76.0588C211.283 75.8517 212.716 76.8476 217.399 76.0588C221.689 75.339 224.811 73.6726 229.416 71.3061C232.822 69.5608 231.86 69.7186 238.016 66.1984C245.889 61.6922 249.816 60.0751 252.811 59.0397C252.948 58.9904 254.755 58.2608 256.934 57.748C272.112 54.1786 290.039 53.9912 305.423 56.269C306.071 56.3676 306.718 56.4662 307.376 56.5845C322.603 59.1679 333.402 67.076 337.506 70.3693C348.256 78.9873 353.342 88.9562 360.97 103.885C366.163 114.041 366.026 115.106 369.177 120.874C372.987 127.836 380.713 136.513 398.041 143.109C397.668 143.602 397.167 144.174 396.509 144.727C395.38 145.683 394.241 146.196 393.436 146.482C394.85 147.616 396.254 148.75 397.668 149.884C393.554 150.386 387.742 150.929 380.742 150.988C372.191 151.067 365.182 151.126 356.807 149.036C351.673 147.754 343.848 145.111 335.209 139.175" stroke="#3A4559" stroke-width="4" stroke-linecap="round" stroke-linejoin="round"/>
<path d="M247.708 103.762C247.335 105.833 245.489 107.243 243.987 108.702C242.475 110.162 241.111 112.331 241.965 114.254C242.583 115.644 244.194 116.344 245.705 116.462C247.217 116.581 248.729 116.255 250.251 116.236C253.147 116.186 256.043 117.291 258.183 119.233C259.558 120.476 259.862 121.067 261.404 121.767C262.002 122.043 263.544 122.714 265.537 122.428C266.195 122.329 268.089 122.063 269.267 120.643C270.897 118.691 270.544 115.319 269.199 113.189C267.579 110.635 263.917 110.014 262.277 107.47C261.099 105.636 261.276 103.289 260.864 101.139C260.392 98.6545 258.959 96.2387 256.691 95.1344C254.512 94.0793 251.184 94.6216 249.534 96.4951C247.777 98.4968 248.14 101.376 247.698 103.762H247.708Z" fill="#56647E"/>
<path d="M235.748 80.8706C234.118 80.3185 232.4 79.7959 230.594 79.3226C224.585 77.735 218.989 77.0054 214.081 76.749" stroke="#3A4559" stroke-width="4" stroke-linecap="round" stroke-linejoin="round"/>
<path d="M228.542 85.7614C231.556 82.6258 235.964 81.1862 240.284 80.8214C244.603 80.4566 248.943 81.058 253.272 81.3933C255.589 81.5708 257.906 81.6792 260.223 81.7187C258.053 84.3218 257.022 87.6842 255.246 90.5733C251.662 96.3811 245.045 99.9703 238.271 100.601" stroke="#3A4559" stroke-width="4" stroke-linecap="round" stroke-linejoin="round"/>
<path d="M315.819 59.5894C313.518 61.8172 313.811 65.6838 314.147 68.9911C314.484 72.2886 314.343 76.3123 311.672 78.0101C310.337 78.8639 308.676 78.8737 307.124 78.7363C302.098 78.2848 297.181 76.5183 292.926 73.6331C289.029 70.9931 285.414 67.3129 280.822 66.783C274.613 66.0568 268.795 71.3955 262.597 70.5515C259.666 70.1491 257.018 68.3728 254.966 66.1058C253.522 64.5258 252.274 62.1214 253.316 60.2175C253.251 60.0114 253.208 59.9427 253.208 59.9427V59.9525C253.229 59.982 262.239 57.5678 264.084 57.1163C267.08 56.3803 269.414 56.4981 274.071 56.3901C287.922 56.0466 302.391 55.9289 315.819 59.5992V59.5894Z" fill="#56647E"/>
<path d="M232.921 93.7188C236.769 90.8297 241.432 89.0548 246.214 88.6505" stroke="#033C5A" stroke-width="4" stroke-linecap="round" stroke-linejoin="round"/>
<path d="M226.718 79.8705C226.145 82.0878 225.281 84.2353 224.135 86.223C223.211 87.8311 221.804 89.4991 219.945 89.4591C218.95 89.4391 218.056 88.9198 217.121 88.6001C215.011 87.891 212.58 88.2605 210.771 89.549C209.605 90.388 209.615 90.5778 208.58 91.217C206.048 92.7552 201.968 92.7552 199.366 90.9973C196 88.72 197.567 85.1642 194.342 83.0068C191.016 80.7894 186.444 82.6372 186.303 82.0079C186.192 81.5085 188.861 79.9087 193.162 78.77C196.337 77.931 203.114 76.7542 212.931 77.5133C216.438 77.7829 221.191 78.4022 226.728 79.8705H226.718Z" fill="#56647E"/>
<path d="M170.511 136.799C172.946 138.298 176.706 140.319 181.595 141.719C187.957 143.533 192.375 143.198 199.816 143.563C208.475 143.987 211.165 144.874 218.823 145.703C227.168 146.6 239.548 147.221 256.296 145.673C265.102 144.855 273.86 145.772 282.636 146.856C292.051 148.02 301.594 147.379 311.058 146.738C321.435 146.038 331.802 145.338 342.179 144.638" fill="#FBFDF9"/>
<path d="M170.511 136.799C172.946 138.298 176.706 140.319 181.595 141.719C187.957 143.533 192.375 143.198 199.816 143.563C208.475 143.987 211.165 144.874 218.823 145.703C227.168 146.6 239.548 147.221 256.296 145.673C265.102 144.855 273.86 145.772 282.636 146.856C292.051 148.02 301.594 147.379 311.058 146.738C321.435 146.038 331.802 145.338 342.179 144.638" stroke="#3A4559" stroke-width="4" stroke-linecap="round" stroke-linejoin="round"/>
<path d="M342.827 106.587C341.109 97.3474 332.578 91.8256 325.352 90.524C319.069 89.3999 310.253 90.8395 307.131 96.1247C305.413 99.0335 306.571 101.163 303.871 104.684C301.27 108.076 297.578 109.525 296.518 109.919C295.919 110.146 295.683 110.166 295.016 110.324C295.016 110.324 294.78 110.373 294.034 110.59C293.376 110.777 289.646 111.96 288.085 112.808C285.228 114.347 282.705 118.439 281.91 122.156C280.447 129.009 285.061 133.565 286.455 134.965C287.879 136.375 291.177 139.54 295.919 139.165C302.978 138.603 307.248 130.616 314.14 129.019C317.39 128.27 317.763 128.93 325.637 127.639C330.791 126.791 333.373 126.367 334.894 125.558C340.53 122.551 344.28 114.317 342.837 106.577L342.827 106.587Z" fill="#56647E"/>
<path d="M381.724 149.252C380.831 147.517 378.553 143.691 374.184 142.114C372.525 141.512 371.013 141.404 369.423 141.433C362.325 141.591 353.742 143.455 349.883 145.387C351.006 145.763 353.252 146.892 354.75 147.268C356.015 147.586 356.062 147.756 356.996 148.021C360.554 149.03 364.108 149.525 368.117 150.091C369.57 150.219 371.18 150.298 373.36 150.239C376.737 150.14 379.584 149.696 381.734 149.243L381.724 149.252Z" fill="#58657B"/>
<path d="M190.011 132.687C190.914 127.389 184.416 121.851 175.497 120.316C166.577 118.782 158.614 121.832 157.71 127.13C156.807 132.428 163.305 137.967 172.225 139.501C181.144 141.036 189.107 137.985 190.011 132.687Z" fill="#E2B1D2" stroke="#3A4559" stroke-width="4" stroke-linecap="round" stroke-linejoin="round"/>
<path d="M252.732 131.277C253.763 135.783 256.06 143.257 261.568 150.998C267.075 158.738 273.368 163.353 277.276 165.788L278.414 160.622C279.818 161.351 281.154 162.199 282.42 163.156C280.712 154.833 278.994 146.501 277.285 138.179" fill="#FBFDF9"/>
<path d="M252.732 131.277C253.763 135.783 256.06 143.257 261.568 150.998C267.075 158.738 273.368 163.353 277.276 165.788L278.414 160.622C279.818 161.351 281.154 162.199 282.42 163.156C280.712 154.833 278.994 146.501 277.285 138.179" stroke="#3A4559" stroke-width="4" stroke-linecap="round" stroke-linejoin="round"/>
<path d="M207.936 116.406C208.728 113.945 207.802 111.44 205.867 110.812C203.932 110.184 201.722 111.671 200.93 114.132C200.138 116.593 201.064 119.098 202.999 119.726C204.934 120.354 207.144 118.867 207.936 116.406Z" fill="#3B4559"/>
<path d="M182.354 110.777C183.146 108.316 182.22 105.811 180.285 105.183C178.35 104.555 176.14 106.041 175.348 108.503C174.556 110.964 175.482 113.469 177.417 114.097C179.352 114.725 181.562 113.238 182.354 110.777Z" fill="#3B4559"/>
<path d="M180.244 131.409C180.54 129.675 179.848 128.11 178.699 127.912C177.55 127.714 176.379 128.959 176.083 130.693C175.788 132.427 176.479 133.993 177.628 134.19C178.777 134.388 179.948 133.143 180.244 131.409Z" fill="#9F567F"/>
<path d="M170.352 129.089C170.647 127.355 169.956 125.789 168.807 125.592C167.658 125.394 166.487 126.639 166.191 128.373C165.895 130.107 166.587 131.672 167.736 131.87C168.885 132.068 170.056 130.823 170.352 129.089Z" fill="#9F567F"/>
<path d="M438.184 153.85C438.779 154.819 438.599 155.779 438.554 156.014C438.293 157.291 437.256 157.825 437.012 157.934C436.12 158.35 435.245 158.16 434.713 158.043C433.298 157.726 432.315 156.847 431.847 156.367C432.153 156.603 432.793 157.155 433.208 158.097C433.352 158.423 433.704 159.229 433.532 160.161C433.343 161.23 432.532 162.072 431.558 162.344C429.998 162.769 427.862 161.764 427.393 160.017C427.095 158.903 427.528 157.708 428.448 156.938C427.763 158.024 426.582 158.577 425.419 158.341C425.292 158.314 423.787 157.979 423.255 156.666C422.768 155.462 423.471 154.403 423.561 154.267C424.319 153.171 425.969 152.836 427.69 153.452C426.582 153.207 425.653 152.438 425.31 151.442C424.968 150.446 425.346 149.585 425.464 149.359C425.779 148.752 426.275 148.236 426.897 147.965C426.96 147.937 427.068 147.892 427.213 147.856C427.411 147.802 428.123 147.639 428.935 148.001C429.638 148.318 430.016 148.861 430.224 149.133C430.62 149.649 430.945 150.283 430.891 150.898C430.675 149.133 431.315 147.611 432.496 147.068C432.739 146.959 433.632 146.606 434.65 147.068C435.813 147.584 436.228 148.734 436.291 148.906C436.805 150.4 435.922 151.55 435.822 151.668C435.155 152.501 434.209 152.637 433.956 152.664C434.272 152.528 435.299 152.121 436.517 152.573C436.823 152.682 437.634 152.999 438.175 153.868L438.184 153.85Z" fill="#ECBDD2" stroke="#D69DB7" stroke-width="0.75" stroke-linecap="round" stroke-linejoin="round"/>
<path d="M431.864 155.145C432.792 154.421 433.06 153.207 432.462 152.433C431.864 151.658 430.626 151.617 429.698 152.34C428.769 153.063 428.501 154.278 429.099 155.052C429.698 155.827 430.935 155.868 431.864 155.145Z" fill="#FFD38C" stroke="#FEC671" stroke-width="0.75" stroke-miterlimit="10"/>
<path d="M132.896 185.135C132.59 186.23 131.76 186.746 131.553 186.864C130.435 187.534 129.344 187.118 129.101 187.018C128.19 186.638 127.739 185.868 127.469 185.388C126.748 184.129 126.73 182.807 126.766 182.137C126.802 182.518 126.82 183.378 126.414 184.311C126.27 184.637 125.918 185.442 125.116 185.949C124.205 186.529 123.033 186.502 122.177 185.949C120.815 185.08 120.112 182.817 121.077 181.295C121.69 180.317 122.862 179.837 124.052 179.991C122.79 180.218 121.591 179.72 120.978 178.697C120.915 178.588 120.139 177.248 120.752 175.962C121.311 174.785 122.555 174.595 122.727 174.568C124.043 174.386 125.404 175.383 126.117 177.076C125.549 176.089 125.485 174.875 125.981 173.961C126.486 173.037 127.37 172.729 127.613 172.666C128.28 172.494 128.983 172.512 129.605 172.793C129.669 172.82 129.768 172.865 129.903 172.956C130.074 173.064 130.678 173.481 130.958 174.332C131.201 175.066 131.066 175.718 131.003 176.053C130.886 176.695 130.642 177.366 130.155 177.737C131.3 176.388 132.851 175.826 134.05 176.333C134.302 176.442 135.159 176.868 135.511 177.927C135.916 179.14 135.348 180.227 135.267 180.381C134.519 181.766 133.076 181.893 132.923 181.902C131.859 181.974 131.129 181.359 130.931 181.187C131.246 181.322 132.238 181.82 132.734 183.016C132.86 183.315 133.176 184.129 132.896 185.116V185.135Z" fill="#ECBDD2" stroke="#D69DB7" stroke-width="0.75" stroke-linecap="round" stroke-linejoin="round"/>
<path d="M130.068 179.947C130.233 178.981 129.428 178.036 128.269 177.837C127.111 177.638 126.039 178.259 125.874 179.225C125.709 180.191 126.515 181.136 127.673 181.335C128.831 181.535 129.903 180.913 130.068 179.947Z" fill="#FFD38C" stroke="#FEC671" stroke-width="0.75" stroke-miterlimit="10"/>
</g>
<defs>
<clipPath id="clip0_948_594">
<rect width="572" height="228" fill="white"/>
</clipPath>
</defs>
</svg>
