<svg width="132" height="29" viewBox="0 0 132 29" fill="none" xmlns="http://www.w3.org/2000/svg">
<g clip-path="url(#clip0_477_195)">
<path d="M11.47 23.3972C12.3523 23.3972 13.3159 23.258 14.3491 22.9796C15.3824 22.7012 16.2299 22.4112 16.9032 22.098C17.2399 21.9356 17.5069 21.8776 17.6927 21.9356C17.8784 21.9936 18.0409 22.1792 18.157 22.4924L19.051 24.5804C19.2948 25.1024 19.2251 25.4968 18.8768 25.7288C17.8668 26.332 16.7059 26.8076 15.3824 27.1672C14.0589 27.5268 12.7586 27.7124 11.4584 27.7124C9.15968 27.7124 7.13962 27.2136 5.40981 26.2044C3.67999 25.1952 2.3449 23.78 1.39292 21.9472C0.440943 20.1144 -0.0234375 17.9568 -0.0234375 15.4628C-0.0234375 12.9688 0.452552 10.8344 1.39292 8.99C2.3449 7.1456 3.67999 5.7188 5.40981 4.7096C7.13962 3.7004 9.15968 3.2016 11.4932 3.2016C12.7934 3.2016 14.0937 3.3756 15.394 3.7352C16.7059 4.0948 17.8436 4.5704 18.8304 5.1736C19.1903 5.4172 19.2599 5.8 19.051 6.322L18.157 8.41C18.0177 8.7 17.8436 8.874 17.6578 8.932C17.4605 8.99 17.2167 8.9552 16.9032 8.8044C16.2299 8.468 15.3708 8.1664 14.3259 7.9112C13.281 7.6444 12.3291 7.5168 11.47 7.5168C9.86786 7.5168 8.50954 7.8648 7.41825 8.5608C6.32696 9.2568 5.50268 10.208 4.95704 11.4028C4.39978 12.5976 4.13276 13.9548 4.13276 15.4628C4.13276 16.9708 4.41139 18.3628 4.95704 19.5576C5.50268 20.7524 6.32696 21.692 7.41825 22.3764C8.50954 23.0608 9.85625 23.3972 11.47 23.3972Z" fill="#F7F7FE"/>
<path d="M38.1719 28.3968H36.0126C35.4089 28.3968 35.1186 28.0952 35.1186 27.5036V25.9608C34.5382 26.5408 33.83 26.9932 32.9941 27.3296C32.1582 27.666 31.2875 27.8516 30.4052 27.9096H29.755C28.5825 27.8632 27.5492 27.5732 26.6669 27.0512C25.7846 26.5292 25.088 25.8216 24.6004 24.9516C24.1128 24.0816 23.8574 23.0956 23.8574 22.0168C23.8574 20.938 24.078 20.0448 24.5192 19.1748C24.9603 18.3164 25.6685 17.6204 26.6437 17.11C27.6189 16.5996 28.8959 16.3328 30.4748 16.3328C31.2178 16.3328 31.9957 16.414 32.8083 16.5648C33.621 16.7156 34.3872 16.9592 35.107 17.2608C35.107 17.168 35.107 17.0752 35.0838 16.994C35.0722 16.9128 35.049 16.8316 35.0258 16.762C34.9329 15.5208 34.5149 14.5812 33.7835 13.9548C33.0521 13.3284 32.0653 13.0152 30.8115 13.0152C30.1382 13.0152 29.43 13.1312 28.6754 13.3748C27.9207 13.6184 27.1893 13.9548 26.5044 14.384C26.0981 14.6276 25.7498 14.4768 25.4595 13.9548L25.2041 13.4212L24.6585 12.3772C24.612 12.2844 24.5656 12.18 24.5308 12.0872C24.4959 11.9944 24.4495 11.9016 24.4031 11.7972C24.3102 11.4608 24.4147 11.1708 24.7281 10.9388C25.5176 10.3356 26.5044 9.86 27.6769 9.5004C28.8495 9.1408 30.0917 8.9552 31.3804 8.9552C33.7603 8.9552 35.6295 9.6512 36.9878 11.0432C38.3577 12.4352 39.0426 14.4072 39.0426 16.9708V27.2136C39.0426 27.3064 39.0426 27.4108 39.0194 27.5152C39.0078 27.6196 38.9962 27.724 38.9962 27.8168C38.9033 28.1996 38.6131 28.3968 38.1371 28.3968H38.1719ZM30.8347 24.1164C31.5081 24.1164 32.1466 24.012 32.7619 23.7916C33.3772 23.5712 33.888 23.2928 34.306 22.9448C34.7239 22.5968 34.9677 22.2024 35.0374 21.7732C35.0606 21.6572 35.0838 21.518 35.0954 21.3788C35.107 21.2396 35.1186 21.0888 35.1186 20.9496V20.6248C34.4453 20.358 33.7371 20.1608 32.9825 20.0332C32.2279 19.9056 31.5081 19.836 30.8463 19.836C29.8595 19.836 29.1165 20.01 28.5941 20.358C28.0833 20.706 27.8163 21.2048 27.8163 21.8544C27.8163 22.5736 28.1181 23.1304 28.7102 23.5248C29.3139 23.9192 30.0221 24.1164 30.8347 24.1164Z" fill="#F7F7FE"/>
<path d="M109.664 28.7796C109.35 28.8492 109.106 28.8724 108.921 28.8492C108.735 28.826 108.584 28.7332 108.433 28.5592C108.294 28.3968 108.119 28.1416 107.934 27.8052L103.719 20.5784C103.29 20.648 102.826 20.706 102.338 20.7408C101.85 20.7756 101.34 20.7988 100.805 20.7988H98.6809V27.0164C98.6809 27.8516 98.263 28.2692 97.4271 28.2692H95.8134C94.9775 28.2692 94.5596 27.8516 94.5596 27.0164V5.26641C94.5596 4.43121 94.9775 4.01361 95.8134 4.01361H100.817C104.195 4.01361 106.784 4.72121 108.584 6.14801C110.383 7.57481 111.277 9.66281 111.277 12.4236C111.277 15.6368 110.035 17.9452 107.539 19.3604L111.753 26.8424C112.183 27.6544 111.974 28.1764 111.103 28.3852L109.664 28.7796ZM100.956 8.32881H98.6926V16.4836H100.956C103.116 16.4836 104.683 16.1124 105.67 15.37C106.657 14.6276 107.144 13.6416 107.144 12.4236C107.144 11.2056 106.657 10.15 105.67 9.41921C104.683 8.68841 103.116 8.31721 100.956 8.31721V8.32881Z" fill="#F7F7FE"/>
<path d="M131.095 29H128.935C128.332 29 128.041 28.6984 128.041 28.1068V26.564C127.461 27.144 126.753 27.5964 125.917 27.9328C125.081 28.2692 124.21 28.4548 123.328 28.5128H122.678C121.505 28.4664 120.472 28.1764 119.59 27.6544C118.707 27.1324 118.011 26.4248 117.523 25.5548C117.036 24.6848 116.78 23.6988 116.78 22.62C116.78 21.5412 117.001 20.648 117.442 19.778C117.883 18.9196 118.591 18.2236 119.567 17.7132C120.542 17.2028 121.819 16.936 123.398 16.936C124.141 16.936 124.919 17.0172 125.731 17.168C126.544 17.3188 127.31 17.5624 128.03 17.864C128.03 17.7712 128.03 17.6784 128.007 17.5972C127.995 17.516 127.972 17.4348 127.949 17.3652C127.856 16.124 127.438 15.1844 126.706 14.558C125.975 13.9316 124.988 13.6184 123.734 13.6184C123.061 13.6184 122.353 13.7344 121.598 13.978C120.844 14.2216 120.112 14.558 119.427 14.9872C119.021 15.2308 118.673 15.08 118.382 14.558L118.127 14.0244L117.581 12.9804C117.535 12.8876 117.488 12.7832 117.454 12.6904C117.419 12.5976 117.372 12.5048 117.326 12.4004C117.233 12.064 117.338 11.774 117.651 11.542C118.44 10.9388 119.427 10.4632 120.6 10.1036C121.772 9.74401 123.015 9.55841 124.303 9.55841C126.683 9.55841 128.552 10.2544 129.911 11.6464C131.281 13.0384 131.966 15.0104 131.966 17.574V27.8168C131.966 27.9096 131.966 28.014 131.942 28.1184C131.931 28.2228 131.919 28.3272 131.919 28.42C131.826 28.8028 131.536 29 131.06 29H131.095ZM123.758 24.7196C124.431 24.7196 125.069 24.6152 125.685 24.3948C126.3 24.1744 126.811 23.896 127.229 23.548C127.647 23.2 127.891 22.8056 127.96 22.3764C127.983 22.2604 128.007 22.1212 128.018 21.982C128.03 21.8428 128.041 21.692 128.041 21.5528V21.228C127.368 20.9612 126.66 20.764 125.905 20.6364C125.151 20.5088 124.431 20.4392 123.769 20.4392C122.782 20.4392 122.039 20.6132 121.517 20.9612C121.006 21.3092 120.739 21.808 120.739 22.4576C120.739 23.1768 121.041 23.7336 121.633 24.128C122.237 24.5224 122.945 24.7196 123.758 24.7196Z" fill="#F7F7FE"/>
<path d="M44.7898 26.6684C44.1165 23.9192 42.6189 16.2632 46.5893 9.29161C47.611 7.50521 49.2247 4.74441 52.5798 3.30601C53.4621 2.92321 56.9566 1.41521 60.5555 3.10881C63.5624 4.52401 65.5476 7.60961 65.7798 11.0896C67.8811 5.90441 72.2347 2.51721 76.5767 2.70281C80.9534 2.88841 83.8442 6.63521 84.9703 8.09681C87.6869 11.6116 88.1513 15.4628 88.5693 18.8848C88.964 22.156 88.7898 24.8704 88.5693 26.6684" stroke="#F7F7FE" stroke-width="4" stroke-linecap="round" stroke-linejoin="round"/>
<path d="M57.2465 25.9492C60.3754 25.9492 62.9119 23.4148 62.9119 20.2884C62.9119 17.1621 60.3754 14.6276 57.2465 14.6276C54.1176 14.6276 51.5811 17.1621 51.5811 20.2884C51.5811 23.4148 54.1176 25.9492 57.2465 25.9492Z" stroke="#F7F7FE" stroke-width="4" stroke-linecap="round" stroke-linejoin="round"/>
<path d="M75.5434 25.9492C78.6723 25.9492 81.2088 23.4148 81.2088 20.2884C81.2088 17.1621 78.6723 14.6276 75.5434 14.6276C72.4144 14.6276 69.8779 17.1621 69.8779 20.2884C69.8779 23.4148 72.4144 25.9492 75.5434 25.9492Z" stroke="#F7F7FE" stroke-width="4" stroke-linecap="round" stroke-linejoin="round"/>
</g>
<defs>
<clipPath id="clip0_477_195">
<rect width="132" height="29" fill="white"/>
</clipPath>
</defs>
</svg>
