<svg width="559" height="235" viewBox="0 0 559 235" fill="none" xmlns="http://www.w3.org/2000/svg">
<path d="M481.914 205.634L470 205L470.683 234.245L482.597 234.879L481.914 205.634Z" fill="#FFDE7D"/>
<path d="M551.166 117L558.675 119.765L552.509 132.173L545 129.408L551.166 117Z" fill="#F8F3D4"/>
<path d="M510.419 50.394L505.097 54.8589L502.639 51.4943L507.962 47.0294L510.419 50.394Z" fill="#F8F3D4"/>
<path d="M470.245 79.5626L464.101 79.8853L465.084 62.1843L471.229 61.8616L470.245 79.5626Z" fill="#00B8A9"/>
<path d="M524.939 88.0001L526.764 95.3682L502.824 108.853L501 101.485L524.939 88.0001Z" fill="#F6416C"/>
<path d="M537.481 29.9382L541.302 35.9375L525.149 47.597L521.328 41.5977L537.481 29.9382Z" fill="#FFDE7D"/>
<path d="M468.03 122.471L470.647 128.88L460.176 133.637L457.558 127.227L468.03 122.471Z" fill="#00B8A9"/>
<path d="M429.593 42.8603L430.918 51.2861L407.325 52.9466L406 44.5208L429.593 42.8603Z" fill="#F6416C"/>
<path d="M448.28 12.0001L447.797 21.105L421.951 25.0707L422.434 15.9658L448.28 12.0001Z" fill="#FFDE7D"/>
<path d="M470.398 29.4537L461.93 28.1162L461.729 16.6002L470.197 17.9378L470.398 29.4537Z" fill="#00B8A9"/>
<path d="M98.3741 119.55L103.167 116.311L93.7452 107.076L88.9524 110.315L98.3741 119.55Z" fill="#FFDE7D"/>
<path d="M36.997 124.107L36.2031 117.912L25.9995 116L26.7933 122.195L36.997 124.107Z" fill="#00B8A9"/>
<path d="M111.908 88.7297L120.496 87.3247L116.588 72.0002L108 73.4053L111.908 88.7297Z" fill="#F6416C"/>
<path d="M129.16 23.8608L136.568 19.9541L128.389 8.53725L120.981 12.4439L129.16 23.8608Z" fill="#00B8A9"/>
<path d="M71.4652 25.9941L74.1533 20.0962L65.0106 16.0455L62.3225 21.9434L71.4652 25.9941Z" fill="#F6416C"/>
<path d="M78.5475 33.4333L68.8984 31.2441L68.5568 48.2169L78.2059 50.4061L78.5475 33.4333Z" fill="#F8F3D4"/>
<path d="M15.1525 80.5127L7.16504 76.6895L0.15588 92.0596L8.1433 95.8828L15.1525 80.5127Z" fill="#F8F3D4"/>
<path d="M177.339 74.7598L174.299 68L165.999 74.1427L169.04 80.9025L177.339 74.7598Z" fill="#FFDE7D"/>
<path d="M233.125 84.3417L245.488 79.46L234.364 45.9998L222 50.8815L233.125 84.3417Z" fill="#00B8A9"/>
<path d="M355.294 55.025L354.665 43.1655L321 38L321.629 49.8595L355.294 55.025Z" fill="#F8F3D4"/>
<path d="M261.928 24.0799L270.196 17.3052L257.368 -2.39119e-05L249.099 6.77468L261.928 24.0799Z" fill="#00B8A9"/>
<path d="M527.348 168.763L537.008 164.806L527.66 147L518 150.957L527.348 168.763Z" fill="#FFDE7D"/>
<path d="M203.339 92.8813L195.771 89.0625L191.719 104.989L199.286 108.808L203.339 92.8813Z" fill="#F6416C"/>
<path d="M38.2989 201.044L47.8975 201.96L46.5984 178.916L36.9998 178L38.2989 201.044Z" fill="#FFDE7D"/>
<path d="M175.003 149.374L183.059 145.556L176.056 131L168 134.818L175.003 149.374Z" fill="#FFDE7D"/>
</svg>
