<svg width="132" height="29" viewBox="0 0 132 29" fill="none" xmlns="http://www.w3.org/2000/svg">
<g clip-path="url(#clip0_201_267)">
<path d="M11.4702 23.3973C12.3525 23.3973 13.3161 23.2581 14.3494 22.9797C15.3826 22.7013 16.2301 22.4113 16.9035 22.0981C17.2401 21.9357 17.5072 21.8777 17.6929 21.9357C17.8787 21.9937 18.0412 22.1793 18.1573 22.4925L19.0512 24.5805C19.295 25.1025 19.2254 25.4969 18.8771 25.7289C17.867 26.3321 16.7061 26.8077 15.3826 27.1673C14.0591 27.5269 12.7589 27.7125 11.4586 27.7125C9.15992 27.7125 7.13987 27.2137 5.41005 26.2045C3.68024 25.1953 2.34514 23.7801 1.39317 21.9473C0.441187 20.1145 -0.0231934 17.9569 -0.0231934 15.4629C-0.0231934 12.9689 0.452796 10.8345 1.39317 8.99006C2.34514 7.14566 3.68024 5.71886 5.41005 4.70966C7.13987 3.70046 9.15992 3.20166 11.4934 3.20166C12.7937 3.20166 14.094 3.37566 15.3942 3.73526C16.7061 4.09486 17.8438 4.57046 18.8306 5.17366C19.1905 5.41726 19.2602 5.80006 19.0512 6.32206L18.1573 8.41006C18.018 8.70006 17.8438 8.87406 17.6581 8.93206C17.4607 8.99006 17.2169 8.95526 16.9035 8.80446C16.2301 8.46806 15.371 8.16646 14.3261 7.91126C13.2813 7.64446 12.3293 7.51686 11.4702 7.51686C9.8681 7.51686 8.50979 7.86486 7.4185 8.56086C6.3272 9.25686 5.50293 10.2081 4.95728 11.4029C4.40003 12.5977 4.13301 13.9549 4.13301 15.4629C4.13301 16.9709 4.41164 18.3629 4.95728 19.5577C5.50293 20.7525 6.3272 21.6921 7.4185 22.3765C8.50979 23.0609 9.85649 23.3973 11.4702 23.3973Z" fill="#231F20"/>
<path d="M38.1719 28.3967H36.0126C35.4089 28.3967 35.1186 28.0951 35.1186 27.5035V25.9607C34.5382 26.5407 33.83 26.9931 32.9941 27.3295C32.1582 27.6659 31.2875 27.8515 30.4052 27.9095H29.755C28.5825 27.8631 27.5492 27.5731 26.6669 27.0511C25.7846 26.5291 25.088 25.8215 24.6004 24.9515C24.1128 24.0815 23.8574 23.0955 23.8574 22.0167C23.8574 20.9379 24.078 20.0447 24.5192 19.1747C24.9603 18.3163 25.6685 17.6203 26.6437 17.1099C27.6189 16.5995 28.8959 16.3327 30.4748 16.3327C31.2178 16.3327 31.9957 16.4139 32.8083 16.5647C33.621 16.7155 34.3872 16.9591 35.107 17.2607C35.107 17.1679 35.107 17.0751 35.0838 16.9939C35.0722 16.9127 35.049 16.8315 35.0258 16.7619C34.9329 15.5207 34.5149 14.5811 33.7835 13.9547C33.0521 13.3283 32.0653 13.0151 30.8115 13.0151C30.1382 13.0151 29.43 13.1311 28.6754 13.3747C27.9207 13.6183 27.1893 13.9547 26.5044 14.3839C26.0981 14.6275 25.7498 14.4767 25.4595 13.9547L25.2041 13.4211L24.6585 12.3771C24.612 12.2843 24.5656 12.1799 24.5308 12.0871C24.4959 11.9943 24.4495 11.9015 24.4031 11.7971C24.3102 11.4607 24.4147 11.1707 24.7281 10.9387C25.5176 10.3355 26.5044 9.85988 27.6769 9.50028C28.8495 9.14068 30.0917 8.95508 31.3804 8.95508C33.7603 8.95508 35.6295 9.65108 36.9878 11.0431C38.3577 12.4351 39.0426 14.4071 39.0426 16.9707V27.2135C39.0426 27.3063 39.0426 27.4107 39.0194 27.5151C39.0078 27.6195 38.9962 27.7239 38.9962 27.8167C38.9033 28.1995 38.6131 28.3967 38.1371 28.3967H38.1719ZM30.8347 24.1163C31.5081 24.1163 32.1466 24.0119 32.7619 23.7915C33.3772 23.5711 33.888 23.2927 34.306 22.9447C34.7239 22.5967 34.9677 22.2023 35.0374 21.7731C35.0606 21.6571 35.0838 21.5179 35.0954 21.3787C35.107 21.2395 35.1186 21.0887 35.1186 20.9495V20.6247C34.4453 20.3579 33.7371 20.1607 32.9825 20.0331C32.2279 19.9055 31.5081 19.8359 30.8463 19.8359C29.8595 19.8359 29.1165 20.0099 28.5941 20.3579C28.0833 20.7059 27.8163 21.2047 27.8163 21.8543C27.8163 22.5735 28.1181 23.1303 28.7102 23.5247C29.3139 23.9191 30.0221 24.1163 30.8347 24.1163Z" fill="#231F20"/>
<path d="M109.663 28.7797C109.35 28.8493 109.106 28.8725 108.92 28.8493C108.735 28.8261 108.584 28.7333 108.433 28.5593C108.293 28.3969 108.119 28.1417 107.933 27.8053L103.719 20.5785C103.29 20.6481 102.825 20.7061 102.338 20.7409C101.85 20.7757 101.339 20.7989 100.805 20.7989H98.6807V27.0165C98.6807 27.8517 98.2628 28.2693 97.4269 28.2693H95.8132C94.9773 28.2693 94.5593 27.8517 94.5593 27.0165V5.26647C94.5593 4.43127 94.9773 4.01367 95.8132 4.01367H100.817C104.195 4.01367 106.784 4.72127 108.584 6.14807C110.383 7.57487 111.277 9.66287 111.277 12.4237C111.277 15.6369 110.035 17.9453 107.539 19.3605L111.753 26.8425C112.183 27.6545 111.974 28.1765 111.103 28.3853L109.663 28.7797ZM100.956 8.32887H98.6923V16.4837H100.956C103.116 16.4837 104.683 16.1125 105.67 15.3701C106.656 14.6277 107.144 13.6417 107.144 12.4237C107.144 11.2057 106.656 10.1501 105.67 9.41927C104.683 8.68847 103.116 8.31727 100.956 8.31727V8.32887Z" fill="#231F20"/>
<path d="M131.095 29H128.935C128.331 29 128.041 28.6984 128.041 28.1068V26.564C127.461 27.144 126.753 27.5964 125.917 27.9328C125.081 28.2692 124.21 28.4548 123.328 28.5128H122.678C121.505 28.4664 120.472 28.1764 119.59 27.6544C118.707 27.1324 118.011 26.4248 117.523 25.5548C117.035 24.6848 116.78 23.6988 116.78 22.62C116.78 21.5412 117.001 20.648 117.442 19.7779C117.883 18.9195 118.591 18.2236 119.566 17.7132C120.542 17.2028 121.819 16.936 123.397 16.936C124.14 16.936 124.918 17.0172 125.731 17.168C126.544 17.3188 127.31 17.5624 128.03 17.8639C128.03 17.7711 128.03 17.6784 128.006 17.5972C127.995 17.516 127.972 17.4348 127.948 17.3652C127.855 16.124 127.438 15.1844 126.706 14.558C125.975 13.9316 124.988 13.6184 123.734 13.6184C123.061 13.6184 122.353 13.7344 121.598 13.978C120.843 14.2216 120.112 14.558 119.427 14.9872C119.021 15.2308 118.672 15.08 118.382 14.558L118.127 14.0244L117.581 12.9803C117.535 12.8875 117.488 12.7831 117.453 12.6903C117.419 12.5975 117.372 12.5047 117.326 12.4003C117.233 12.0639 117.337 11.7739 117.651 11.5419C118.44 10.9387 119.427 10.4631 120.6 10.1035C121.772 9.74395 123.014 9.55835 124.303 9.55835C126.683 9.55835 128.552 10.2543 129.91 11.6463C131.28 13.0384 131.965 15.0103 131.965 17.5739V27.8168C131.965 27.9096 131.965 28.014 131.942 28.1184C131.93 28.2228 131.919 28.3272 131.919 28.42C131.826 28.8028 131.536 29 131.06 29H131.095ZM123.757 24.7196C124.431 24.7196 125.069 24.6152 125.685 24.3948C126.3 24.1744 126.811 23.896 127.229 23.5479C127.647 23.2 127.89 22.8056 127.96 22.3764C127.983 22.2604 128.006 22.1212 128.018 21.982C128.03 21.8428 128.041 21.692 128.041 21.5528V21.228C127.368 20.9612 126.66 20.764 125.905 20.6364C125.15 20.5088 124.431 20.4392 123.769 20.4392C122.782 20.4392 122.039 20.6132 121.517 20.9612C121.006 21.3092 120.739 21.808 120.739 22.4576C120.739 23.1768 121.041 23.7336 121.633 24.1279C122.236 24.5224 122.945 24.7196 123.757 24.7196Z" fill="#231F20"/>
<path d="M44.7894 26.6685C44.116 23.9193 42.6184 16.2633 46.5888 9.29167C47.6105 7.50527 49.2242 4.74447 52.5793 3.30607C53.4617 2.92327 56.9561 1.41527 60.5551 3.10887C63.5619 4.52407 65.5471 7.60967 65.7793 11.0897C67.8806 5.90447 72.2342 2.51727 76.5762 2.70287C80.9529 2.88847 83.8437 6.63527 84.9698 8.09687C87.6865 11.6117 88.1508 15.4629 88.5688 18.8849C88.9635 22.1561 88.7894 24.8705 88.5688 26.6685" stroke="#231F20" stroke-width="4" stroke-linecap="round" stroke-linejoin="round"/>
<path d="M57.2465 25.9493C60.3754 25.9493 62.9119 23.4149 62.9119 20.2885C62.9119 17.1621 60.3754 14.6277 57.2465 14.6277C54.1176 14.6277 51.5811 17.1621 51.5811 20.2885C51.5811 23.4149 54.1176 25.9493 57.2465 25.9493Z" stroke="#231F20" stroke-width="4" stroke-linecap="round" stroke-linejoin="round"/>
<path d="M75.5431 25.9493C78.6721 25.9493 81.2086 23.4149 81.2086 20.2885C81.2086 17.1621 78.6721 14.6277 75.5431 14.6277C72.4142 14.6277 69.8777 17.1621 69.8777 20.2885C69.8777 23.4149 72.4142 25.9493 75.5431 25.9493Z" stroke="#231F20" stroke-width="4" stroke-linecap="round" stroke-linejoin="round"/>
</g>
<defs>
<clipPath id="clip0_201_267">
<rect width="132" height="29" fill="white"/>
</clipPath>
</defs>
</svg>
